<?xml version="1.0" standalone="no"?>
<!DOCTYPE svg PUBLIC "-//W3C//DTD SVG 20010904//EN"
 "http://www.w3.org/TR/2001/REC-SVG-20010904/DTD/svg10.dtd">
<svg version="1.0" xmlns="http://www.w3.org/2000/svg"
 width="200.000000pt" height="204.000000pt" viewBox="0 0 200.000000 204.000000"
 preserveAspectRatio="xMidYMid meet">
<metadata>
Created by potrace 1.10, written by Peter Selinger 2001-2011
</metadata>
<g transform="translate(0.000000,204.000000) scale(0.100000,-0.100000)"
fill="#00cba7" stroke="none">
<path d="M902 1878 c-247 -236 -831 -822 -835 -838 -2 -9 1 -27 7 -39 7 -12
214 -224 461 -471 353 -354 454 -450 474 -450 19 0 77 52 251 224 124 123 330
326 458 452 214 211 232 232 232 263 0 32 -33 67 -457 493 -273 273 -465 458
-476 458 -11 0 -62 -42 -115 -92z m1026 -864 c-2 -7 -209 -216 -461 -465
l-459 -452 -465 464 -464 464 468 463 468 463 458 -462 c252 -254 457 -468
455 -475z"/>
<path d="M566 1470 l-445 -445 442 -446 442 -446 450 443 450 443 -447 448
-447 447 -445 -444z m605 253 c80 -82 155 -164 166 -183 57 -96 68 -255 25
-354 -25 -56 -81 -136 -96 -136 -14 0 -56 41 -56 56 0 6 15 35 34 63 62 91 68
203 19 309 -9 20 -70 91 -135 157 l-117 120 -159 -158 c-158 -158 -158 -158
-221 -171 -37 -8 -64 -9 -68 -4 -7 13 427 448 447 448 9 0 81 -66 161 -147z
m-44 -125 c129 -133 148 -169 141 -275 -4 -71 -21 -118 -62 -168 l-25 -30 -32
32 -32 32 26 38 c15 21 30 60 33 86 10 71 -14 120 -96 202 l-70 70 -88 -88
-89 -88 -46 12 c-26 6 -47 12 -47 13 0 6 264 276 270 276 4 0 56 -51 117 -112z
m-59 -105 c66 -71 82 -101 82 -158 0 -53 -29 -115 -53 -115 -7 0 -24 11 -37
25 -20 21 -22 28 -12 50 18 40 14 69 -13 95 l-25 24 -28 -27 c-16 -15 -34 -27
-40 -27 -10 0 -48 20 -71 37 -7 5 132 143 143 143 5 0 30 -21 54 -47z m574
-240 c120 -120 218 -223 218 -229 0 -15 -260 -277 -313 -315 -84 -61 -217 -83
-325 -55 -89 24 -140 63 -328 248 -100 98 -188 178 -197 178 -9 0 -31 -13 -49
-29 l-33 -30 29 -30 29 -31 -18 -40 c-10 -22 -21 -40 -24 -40 -11 0 -141 135
-141 146 0 18 110 115 147 131 89 36 127 14 329 -192 203 -207 231 -225 359
-225 115 0 146 18 292 162 l122 121 -157 159 c-86 88 -160 167 -164 177 -5 16
-12 83 -9 104 1 4 4 7 8 7 4 0 105 -98 225 -217z m-889 147 c116 -19 154 -45
357 -245 110 -109 195 -185 206 -185 20 0 84 35 84 46 0 4 -14 22 -30 41 -17
19 -27 39 -23 46 3 7 13 22 21 35 l15 23 74 -73 73 -72 -48 -49 c-77 -80 -146
-104 -219 -76 -15 6 -111 93 -213 193 -213 210 -231 221 -365 221 -108 -1
-142 -20 -288 -163 l-117 -116 159 -161 159 -160 11 -66 c6 -36 11 -70 11 -75
0 -5 -103 95 -230 221 -126 126 -230 235 -230 240 0 6 69 79 153 162 162 161
213 195 315 213 66 11 61 11 125 0z m275 -59 c6 -37 -14 -49 -39 -25 -19 20
-19 22 -4 38 22 21 39 16 43 -13z m-213 -83 c22 -11 123 -102 225 -202 189
-186 218 -206 291 -206 42 1 102 36 174 103 l70 65 -88 90 -89 89 7 47 c4 25
10 46 14 46 3 0 67 -61 141 -135 l134 -134 -19 -23 c-10 -13 -57 -61 -103
-106 -101 -101 -159 -132 -247 -132 -105 0 -146 27 -350 230 -99 98 -193 184
-208 189 -36 14 -108 14 -144 0 -15 -5 -61 -42 -100 -82 l-73 -71 86 -88 c85
-86 86 -89 79 -125 -4 -21 -10 -44 -14 -50 -4 -8 -55 36 -146 128 l-140 140
110 104 c111 105 152 133 215 146 50 10 128 0 175 -23z m529 -217 c29 -32 -1
-53 -48 -35 -14 5 -14 8 1 30 19 29 25 30 47 5z m-619 -15 c0 -30 -31 -44 -51
-24 -24 24 -11 50 23 46 20 -2 28 -9 28 -22z m62 -48 c28 -26 29 -49 4 -72
-67 -60 -89 -238 -41 -328 14 -26 76 -102 139 -168 l114 -122 161 161 161 161
73 13 c39 8 72 13 72 11 0 -5 -461 -459 -469 -462 -5 -1 -76 67 -158 152 -106
110 -157 171 -177 211 -66 135 -43 318 54 428 17 20 35 37 38 37 3 0 16 -10
29 -22z m92 -95 c20 -25 21 -27 4 -52 -34 -52 -43 -77 -43 -119 0 -63 20 -101
96 -181 l67 -72 88 87 87 87 46 -7 c25 -4 46 -13 46 -19 0 -7 -60 -72 -133
-145 l-133 -133 -106 109 c-58 59 -113 122 -122 140 -45 87 -39 200 15 284 36
55 58 60 88 21z m81 -78 c20 -21 22 -28 12 -50 -18 -39 -14 -71 12 -101 l23
-28 19 23 c32 38 51 44 84 24 17 -9 30 -24 30 -33 0 -20 -111 -130 -131 -130
-27 0 -126 113 -138 156 -12 44 -2 100 23 139 21 32 36 31 66 0z m75 -95 c0
-18 -6 -26 -23 -28 -24 -4 -38 18 -28 44 3 9 15 14 28 12 17 -2 23 -10 23 -28z"/>
<path d="M812 1649 c-158 -155 -198 -199 -180 -199 33 0 33 1 207 174 87 86
165 156 173 156 8 0 68 -54 132 -121 144 -148 176 -205 176 -316 0 -81 -22
-153 -64 -208 -23 -29 -24 -34 -10 -46 13 -11 19 -9 36 11 11 14 31 50 46 80
24 49 27 66 27 160 0 100 -2 108 -33 165 -21 38 -84 113 -170 202 l-137 141
-203 -199z"/>
<path d="M901 1566 c-61 -61 -111 -115 -111 -119 0 -25 46 4 120 76 47 45 90
82 95 82 19 0 135 -107 164 -152 16 -24 32 -61 36 -82 8 -46 -9 -115 -37 -154
-19 -26 -19 -30 -5 -44 14 -14 18 -12 41 23 49 76 54 181 11 263 -7 15 -56 70
-108 123 l-95 95 -111 -111z"/>
<path d="M956 1461 c-45 -46 -53 -71 -22 -71 7 0 23 11 36 25 31 33 53 32 83
-5 35 -41 41 -64 27 -105 -20 -61 12 -78 36 -19 24 58 11 105 -48 169 -27 30
-53 55 -57 55 -4 0 -28 -22 -55 -49z"/>
<path d="M1440 1387 c0 -25 26 -56 168 -199 l167 -169 -135 -133 c-116 -114
-145 -136 -195 -155 -79 -30 -197 -26 -265 8 -27 14 -117 94 -225 201 -99 98
-190 183 -202 189 -28 14 -88 14 -116 0 -12 -6 -43 -32 -70 -57 l-47 -46 52
-53 c28 -29 55 -50 60 -47 16 10 8 41 -17 64 -33 31 -32 42 10 79 26 22 46 31
72 31 33 0 50 -14 223 -185 230 -227 252 -240 405 -240 143 0 176 18 361 197
79 78 143 145 142 149 -2 4 -90 95 -195 202 -178 179 -193 192 -193 164z"/>
<path d="M600 1366 c-25 -7 -64 -22 -87 -34 -43 -22 -323 -286 -323 -305 0 -6
88 -97 195 -201 161 -157 195 -187 195 -167 0 18 -43 67 -162 188 -89 89 -163
169 -164 178 -4 25 243 255 306 284 74 34 178 35 265 1 54 -21 79 -42 240
-206 153 -154 186 -184 223 -193 36 -10 48 -9 85 7 23 11 59 37 79 58 l37 39
-51 53 c-36 38 -53 50 -59 41 -5 -8 3 -25 22 -46 16 -19 29 -37 29 -41 0 -11
-50 -57 -77 -71 -45 -23 -74 -2 -263 184 -102 100 -201 190 -220 200 -84 43
-185 54 -270 31z"/>
<path d="M601 1244 c-30 -11 -75 -47 -145 -115 l-101 -98 115 -116 c97 -97
116 -112 118 -94 3 16 -18 44 -82 108 -47 48 -86 91 -86 97 0 6 37 47 83 90
105 101 161 121 261 92 33 -10 78 -48 227 -195 204 -200 242 -226 336 -226 79
0 142 37 248 143 l90 91 -50 46 c-27 26 -80 75 -116 111 -54 52 -67 61 -73 47
-5 -13 18 -42 86 -111 l92 -94 -74 -76 c-107 -108 -162 -132 -254 -112 -47 10
-63 23 -241 197 -110 109 -206 195 -229 205 -54 25 -150 30 -205 10z"/>
<path d="M733 942 c-58 -79 -89 -189 -78 -277 12 -103 53 -165 208 -322 l142
-144 200 201 c163 164 194 200 170 194 -21 -4 -82 -58 -198 -172 l-168 -166
-125 124 c-157 157 -188 211 -187 328 1 82 15 130 60 195 23 33 25 40 12 53
-13 13 -18 11 -36 -14z"/>
<path d="M812 848 c-47 -77 -51 -171 -12 -253 11 -22 61 -82 113 -133 l93 -93
112 113 c88 90 108 114 96 121 -12 7 -39 -14 -110 -84 l-95 -93 -84 84 c-86
85 -115 136 -115 200 0 35 18 88 41 121 14 20 15 29 7 37 -18 18 -25 15 -46
-20z"/>
<path d="M905 767 c-28 -67 -16 -106 56 -185 l46 -51 51 52 c29 29 52 55 52
59 0 3 -8 9 -17 12 -11 4 -27 -4 -49 -25 -38 -36 -59 -31 -93 25 -23 37 -26
67 -10 98 9 16 8 24 -5 36 -14 14 -17 12 -31 -21z"/>
</g>
</svg>
