<?xml version="1.0" standalone="no"?>
<!DOCTYPE svg PUBLIC "-//W3C//DTD SVG 20010904//EN"
 "http://www.w3.org/TR/2001/REC-SVG-20010904/DTD/svg10.dtd">
<svg version="1.0" xmlns="http://www.w3.org/2000/svg"
 width="220.000000pt" height="269.000000pt" viewBox="0 0 220.000000 269.000000"
 preserveAspectRatio="xMidYMid meet">
<metadata>
Created by potrace 1.10, written by Peter Selinger 2001-2011
</metadata>
<g transform="translate(0.000000,269.000000) scale(0.100000,-0.100000)"
fill="#fff" stroke="none">
<path d="M1038 2523 c-144 -134 -862 -851 -873 -873 -10 -20 -11 -30 -1 -48 6
-12 214 -225 460 -472 357 -357 454 -450 475 -450 19 0 76 50 251 223 124 123
330 326 458 453 214 211 232 232 232 263 0 32 -31 66 -442 479 -388 388 -477
472 -503 472 -3 0 -29 -21 -57 -47z m980 -909 c-2 -7 -209 -216 -461 -465
l-459 -452 -465 464 -464 464 468 463 468 463 458 -462 c252 -254 457 -468
455 -475z"/>
<path d="M656 2070 l-445 -445 442 -446 442 -446 450 443 450 443 -447 448
-447 447 -445 -444z m600 258 c78 -79 150 -157 162 -173 57 -84 77 -230 47
-332 -16 -55 -90 -173 -108 -173 -15 0 -57 41 -57 56 0 6 15 35 34 63 62 91
68 203 19 309 -9 20 -70 91 -135 157 l-117 120 -159 -158 c-158 -158 -158
-158 -221 -171 -37 -8 -64 -9 -68 -4 -7 13 427 448 447 448 8 0 79 -64 156
-142z m-39 -130 c129 -133 148 -169 141 -275 -4 -71 -21 -118 -62 -168 l-25
-30 -32 32 -32 32 26 38 c15 21 30 60 33 86 10 72 -14 122 -97 202 l-70 68
-88 -87 -88 -87 -46 12 c-26 6 -47 12 -47 13 0 6 264 276 270 276 4 0 56 -51
117 -112z m-59 -105 c66 -71 82 -101 82 -158 0 -53 -29 -115 -53 -115 -7 0
-24 11 -37 25 -20 21 -22 28 -12 50 18 40 14 69 -13 95 l-25 24 -28 -27 c-16
-15 -34 -27 -40 -27 -10 0 -48 20 -71 37 -7 5 132 143 143 143 5 0 30 -21 54
-47z m574 -240 c120 -120 218 -222 218 -229 0 -18 -289 -302 -334 -329 -87
-51 -206 -67 -304 -41 -89 24 -141 63 -324 244 -193 191 -206 198 -256 148
l-26 -26 29 -30 28 -30 -18 -40 c-10 -22 -21 -40 -24 -40 -11 0 -141 135 -141
146 0 18 110 115 147 131 88 36 127 14 329 -192 202 -207 231 -225 359 -225
115 0 146 18 292 163 l123 121 -160 161 -161 161 -8 57 c-7 53 -6 67 8 67 3 0
103 -98 223 -217z m-882 147 c112 -21 150 -48 350 -245 110 -109 195 -185 206
-185 20 0 84 35 84 46 0 4 -14 22 -30 41 -17 19 -27 39 -23 46 3 7 13 22 21
35 l15 23 74 -73 73 -72 -48 -49 c-77 -80 -146 -104 -219 -76 -15 6 -111 93
-213 193 -213 210 -231 221 -365 221 -108 -1 -142 -20 -288 -163 l-117 -116
159 -161 159 -160 11 -66 c6 -36 11 -70 11 -75 0 -5 -103 95 -230 221 -126
126 -230 235 -230 240 0 6 69 79 153 162 162 161 213 195 315 213 67 11 74 11
132 0z m268 -59 c6 -37 -14 -49 -39 -25 -19 20 -19 22 -4 38 22 21 39 16 43
-13z m-215 -82 c24 -12 123 -101 227 -203 189 -186 218 -206 291 -206 42 1
102 36 174 103 l70 65 -88 90 -89 89 7 47 c4 25 10 46 14 46 3 0 67 -60 140
-134 l135 -135 -58 -65 c-67 -77 -147 -146 -196 -171 -19 -10 -65 -20 -101
-23 -112 -8 -151 17 -364 228 -99 98 -193 184 -208 189 -36 14 -108 14 -144 0
-15 -5 -61 -42 -100 -82 l-73 -71 86 -88 c85 -86 86 -89 79 -125 -4 -21 -10
-44 -14 -50 -4 -8 -55 36 -146 128 l-140 140 110 104 c142 134 190 158 293
149 30 -2 72 -14 95 -25z m531 -218 c29 -32 -1 -53 -48 -35 -14 5 -14 8 1 30
19 29 25 30 47 5z m-619 -15 c0 -30 -31 -44 -51 -24 -24 24 -11 50 23 46 20
-2 28 -9 28 -22z m62 -48 c28 -26 29 -49 4 -72 -67 -60 -89 -238 -41 -328 14
-27 76 -102 139 -169 l114 -121 161 161 161 161 73 13 c39 8 72 12 72 11 0 -6
-461 -459 -469 -462 -5 -1 -76 67 -158 152 -162 168 -198 223 -211 324 -15
115 19 237 88 315 17 20 35 37 38 37 3 0 16 -10 29 -22z m92 -95 c20 -25 21
-27 4 -52 -34 -52 -43 -77 -43 -119 0 -63 20 -101 96 -181 l67 -72 88 87 87
87 46 -7 c25 -4 46 -13 46 -19 0 -7 -60 -72 -133 -145 l-133 -133 -107 110
c-125 128 -149 172 -149 268 0 69 12 108 51 165 31 45 52 47 80 11z m81 -78
c20 -21 22 -28 12 -50 -18 -38 -15 -69 9 -99 l21 -26 34 30 c19 16 37 30 40
30 17 0 64 -37 64 -50 0 -20 -111 -130 -131 -130 -21 0 -127 111 -134 141 -14
62 -9 107 15 147 24 39 39 40 70 7z m75 -95 c0 -18 -6 -26 -23 -28 -24 -4 -38
18 -28 44 3 9 15 14 28 12 17 -2 23 -10 23 -28z"/>
<path d="M902 2249 c-176 -173 -199 -199 -176 -199 21 0 51 24 132 103 57 56
133 130 168 165 35 34 70 62 78 62 7 0 66 -54 130 -121 144 -148 176 -205 176
-316 0 -81 -22 -153 -64 -208 -23 -29 -24 -34 -10 -46 13 -11 19 -9 36 11 11
14 31 50 46 80 24 49 27 66 27 160 0 100 -2 108 -33 165 -21 38 -84 113 -170
202 l-137 142 -203 -200z"/>
<path d="M987 2162 c-59 -59 -107 -111 -107 -115 0 -25 46 4 120 77 46 46 89
83 95 82 22 -3 135 -109 164 -153 16 -24 32 -61 36 -82 8 -46 -9 -115 -37
-154 -19 -26 -19 -30 -5 -44 14 -14 18 -12 41 23 50 76 54 181 10 265 -14 28
-190 209 -203 209 -4 0 -55 -48 -114 -108z"/>
<path d="M1046 2061 c-45 -46 -53 -71 -22 -71 7 0 23 11 36 25 31 33 53 32 84
-6 34 -40 41 -72 26 -110 -9 -21 -10 -33 -2 -41 29 -29 60 54 42 115 -10 35
-92 137 -109 137 -4 0 -28 -22 -55 -49z"/>
<path d="M1530 1987 c0 -25 26 -56 168 -199 l167 -169 -135 -133 c-155 -152
-199 -176 -315 -176 -125 0 -156 20 -365 225 -102 100 -195 188 -207 194 -28
14 -88 14 -116 0 -12 -6 -43 -32 -70 -57 l-47 -46 52 -53 c28 -29 55 -50 60
-47 16 10 8 41 -17 64 -33 31 -32 42 10 79 26 22 46 31 72 31 33 0 50 -14 223
-185 230 -227 252 -240 405 -240 143 0 178 19 362 198 79 77 142 144 141 148
-2 5 -90 95 -195 202 -178 179 -193 192 -193 164z"/>
<path d="M689 1966 c-77 -21 -133 -62 -279 -204 l-141 -137 201 -195 c165
-160 201 -191 200 -171 0 18 -43 68 -162 188 -89 89 -163 169 -164 178 -4 25
243 255 306 284 74 34 178 35 265 1 54 -21 79 -43 240 -206 153 -155 186 -184
223 -193 36 -10 48 -9 85 7 23 11 59 37 79 58 l36 39 -50 54 c-37 41 -52 51
-58 41 -6 -9 1 -25 21 -47 16 -19 29 -37 29 -41 0 -13 -64 -69 -86 -76 -41
-12 -80 17 -259 193 -99 98 -196 186 -215 196 -84 43 -184 55 -271 31z"/>
<path d="M697 1845 c-37 -12 -70 -38 -150 -115 l-102 -99 115 -116 c97 -97
116 -112 118 -94 3 16 -18 44 -82 108 -47 48 -86 91 -86 97 0 6 38 48 84 92
105 101 159 119 260 90 33 -10 78 -48 227 -195 204 -200 242 -226 336 -226 79
0 142 37 248 143 l90 90 -115 109 c-94 89 -116 105 -118 88 -3 -14 22 -45 84
-108 l89 -89 -75 -76 c-107 -108 -162 -132 -254 -112 -47 10 -63 23 -241 197
-109 107 -207 195 -229 205 -53 25 -140 29 -199 11z"/>
<path d="M823 1542 c-58 -79 -89 -189 -78 -277 12 -103 53 -165 208 -322 l142
-144 200 201 c163 164 194 200 170 194 -21 -4 -82 -58 -198 -172 l-168 -166
-125 124 c-156 156 -188 211 -187 328 0 82 14 129 60 195 23 33 25 40 12 53
-13 13 -18 11 -36 -14z"/>
<path d="M902 1448 c-47 -77 -51 -171 -12 -253 11 -22 61 -82 113 -133 l93
-92 112 112 c62 62 112 113 112 114 0 1 -7 5 -17 8 -11 5 -43 -19 -110 -86
l-94 -92 -84 84 c-86 85 -115 136 -115 200 0 35 18 88 41 121 14 20 15 29 7
37 -18 18 -25 15 -46 -20z"/>
<path d="M995 1367 c-28 -67 -16 -106 56 -185 l46 -51 51 52 c29 29 52 55 52
59 0 3 -8 9 -17 12 -11 4 -27 -4 -49 -25 -38 -36 -59 -31 -93 25 -23 37 -26
67 -10 98 9 16 8 24 -5 36 -14 14 -17 12 -31 -21z"/>
<path d="M383 615 c-26 -18 -22 -34 19 -86 16 -19 30 -50 33 -68 5 -39 30 -81
49 -81 24 0 46 36 46 76 0 33 7 46 35 74 42 40 44 64 9 86 -24 16 -26 16 -54
-5 -36 -26 -36 -26 -67 -1 -31 24 -42 25 -70 5z m81 -59 c32 -38 36 -50 36
-100 0 -43 -3 -56 -15 -56 -11 0 -15 12 -15 46 0 41 -6 53 -46 100 -44 52 -45
54 -20 54 17 0 35 -13 60 -44z m116 36 c0 -5 -13 -21 -29 -36 -33 -32 -52 -20
-30 20 12 23 59 35 59 16z"/>
<path d="M664 621 c-33 -14 -58 -53 -84 -130 -19 -55 -22 -75 -14 -89 17 -27
51 -26 77 2 32 34 73 34 108 1 24 -24 35 -26 115 -28 109 -2 215 6 232 17 7 4
17 19 22 32 15 39 63 33 89 -11 18 -31 25 -35 64 -35 33 0 49 6 67 25 31 33
79 33 110 0 18 -19 34 -25 65 -25 22 0 46 5 53 12 16 16 120 18 133 1 16 -18
33 -16 53 6 15 17 17 31 11 97 -7 66 -12 83 -34 105 -24 24 -32 26 -105 24
-73 -1 -81 -3 -103 -29 l-24 -29 -30 29 c-41 39 -98 40 -136 2 l-26 -27 -28
30 c-23 25 -32 28 -47 20 -11 -6 -23 -22 -26 -36 -11 -43 -86 -43 -86 0 0 29
-33 38 -144 43 -109 4 -113 3 -143 -22 -37 -31 -41 -32 -68 -6 -25 23 -72 33
-101 21z m79 -38 c8 -10 29 -53 46 -96 24 -62 27 -79 16 -83 -21 -8 -33 3 -40
36 -6 29 -8 30 -65 30 -56 0 -58 -1 -69 -30 -10 -29 -36 -49 -48 -37 -7 8 55
157 75 180 8 9 27 17 42 17 15 0 34 -8 43 -17z m295 0 c-3 -15 -14 -17 -78
-15 -80 3 -107 -6 -97 -32 5 -13 21 -16 75 -16 77 0 92 -9 92 -56 0 -46 -18
-56 -115 -57 -74 -2 -85 0 -85 15 0 15 12 18 83 20 74 3 82 5 82 23 0 18 -8
20 -70 23 -80 3 -95 12 -95 56 0 49 14 56 118 56 83 0 93 -2 90 -17z m52 -23
l0 -40 70 0 70 0 0 40 c0 33 4 40 19 40 18 0 19 -7 15 -97 -3 -77 -7 -99 -19
-101 -12 -3 -15 6 -15 40 l0 43 -67 -2 -68 -1 -3 -41 c-2 -28 -8 -41 -18 -41
-11 0 -14 20 -14 100 0 82 3 100 15 100 11 0 15 -11 15 -40z m352 23 c9 -10
30 -53 46 -96 24 -62 27 -79 17 -84 -21 -7 -33 4 -40 37 -6 29 -8 30 -66 30
-58 0 -59 -1 -73 -35 -8 -19 -22 -35 -30 -35 -21 0 -21 4 15 90 38 90 54 110
89 110 15 0 34 -8 42 -17z m176 -20 c4 -37 22 -45 22 -10 0 13 5 28 12 35 15
15 55 16 64 0 9 -15 33 -171 27 -180 -12 -22 -32 -4 -37 32 -3 22 -9 58 -12
80 -8 56 -21 50 -29 -12 -9 -76 -14 -88 -35 -88 -15 0 -20 13 -30 70 -12 73
-30 94 -30 36 0 -70 -12 -126 -28 -126 -13 0 -14 14 -9 90 3 49 9 95 12 100 4
6 21 10 38 8 28 -3 32 -7 35 -35z"/>
<path d="M670 537 l-20 -32 41 -3 c49 -4 52 -2 40 30 -15 40 -39 42 -61 5z"/>
<path d="M1370 537 l-20 -32 41 -3 c49 -4 52 -2 40 30 -15 40 -39 42 -61 5z"/>
<path d="M472 320 c-69 -16 -114 -90 -93 -153 20 -58 57 -84 131 -91 73 -7
113 6 118 40 4 30 -21 46 -86 53 -53 6 -57 8 -57 31 0 23 4 25 56 30 31 3 63
11 72 19 20 16 22 44 5 59 -18 14 -106 21 -146 12z m138 -40 c0 -18 -7 -20
-67 -20 -76 0 -103 -16 -103 -61 0 -46 23 -59 101 -59 62 0 69 -2 69 -20 0
-18 -7 -20 -65 -20 -76 0 -111 14 -131 51 -23 45 -17 78 20 115 32 32 38 34
105 34 64 0 71 -2 71 -20z"/>
<path d="M1173 320 c-36 -15 -46 -44 -29 -85 14 -32 13 -38 -2 -65 -15 -27
-16 -32 -2 -57 20 -36 42 -39 79 -12 l29 22 30 -22 c34 -23 74 -27 89 -9 12
15 25 88 26 141 1 28 -6 44 -25 63 -22 22 -36 26 -99 30 -41 2 -84 -1 -96 -6z
m178 -41 c17 -17 20 -29 16 -62 -3 -23 -14 -47 -23 -54 -17 -12 -16 -14 6 -38
l23 -25 -25 0 c-13 0 -35 11 -48 25 -17 18 -34 25 -62 25 -34 0 -38 -3 -38
-25 0 -18 -5 -25 -20 -25 -16 0 -20 7 -20 35 0 44 20 55 104 55 l66 0 0 35 0
35 -70 0 c-56 0 -70 -3 -70 -15 0 -8 -7 -15 -15 -15 -10 0 -15 11 -15 35 l0
35 85 0 c73 0 88 -3 106 -21z"/>
<path d="M1561 321 c-19 -3 -38 -13 -44 -22 -23 -37 19 -69 91 -69 46 0 65
-12 60 -36 -4 -22 -64 -32 -81 -15 -18 18 -55 12 -71 -11 -22 -31 -20 -45 9
-74 22 -22 33 -25 88 -23 106 3 157 45 157 130 0 96 -82 143 -209 120z m123
-31 c34 -12 60 -55 60 -98 0 -26 -8 -41 -32 -63 -30 -27 -39 -29 -108 -29
l-75 0 3 32 c3 35 38 55 38 23 0 -13 10 -15 57 -13 51 3 59 6 73 31 13 24 13
30 0 55 -15 25 -20 27 -93 30 -69 3 -77 5 -77 22 0 18 7 20 64 20 36 0 76 -4
90 -10z"/>
<path d="M821 293 c-37 -38 -88 -169 -74 -191 17 -28 47 -25 103 12 l54 35 24
-35 c18 -27 29 -34 49 -32 45 5 50 29 23 109 -30 90 -65 129 -115 129 -27 0
-44 -7 -64 -27z m98 -10 c18 -16 81 -151 81 -174 0 -5 -8 -9 -18 -9 -14 0 -27
20 -49 78 -36 91 -59 104 -86 47 -22 -46 -22 -45 14 -45 20 0 29 -4 26 -12 -2
-7 -18 -12 -35 -12 -26 2 -33 -3 -41 -27 -7 -19 -17 -29 -30 -29 -12 0 -21 1
-21 3 0 1 16 38 35 82 33 77 63 115 90 115 7 0 22 -8 34 -17z"/>
</g>
</svg>
